<svg width="24" height="24" viewBox="0 0 24 24" fill="none" xmlns="http://www.w3.org/2000/svg">
<path d="M11.998 5.99999C11.8225 5.99999 11.65 6.0462 11.498 6.13397C11.346 6.22174 11.2198 6.34797 11.132 6.49999C10.9984 6.7278 10.7802 6.89353 10.5249 6.96103C10.2696 7.02852 9.99799 6.9923 9.7693 6.86026C9.54061 6.72823 9.37344 6.5111 9.30425 6.25625C9.23506 6.00141 9.26948 5.72955 9.4 5.49999C9.61374 5.13077 9.90378 4.81139 10.2508 4.56316C10.5977 4.31493 10.9937 4.14356 11.4121 4.06048C11.8306 3.9774 12.2619 3.98453 12.6774 4.0814C13.0929 4.17826 13.483 4.36262 13.8215 4.62218C14.1601 4.88175 14.4394 5.21054 14.6409 5.58662C14.8423 5.9627 14.9612 6.37741 14.9896 6.80309C15.0181 7.22877 14.9554 7.65561 14.8058 8.05514C14.6562 8.45467 14.423 8.8177 14.122 9.11999L13.87 9.36799C13.6524 9.5681 13.4498 9.78402 13.264 10.014C13.048 10.29 12.998 10.46 12.998 10.574C12.998 10.782 13.112 10.974 13.294 11.074L20.676 15.176C21.1745 15.4529 21.5668 15.8876 21.7915 16.4117C22.0162 16.9358 22.0605 17.5196 21.9175 18.0716C21.7745 18.6236 21.4522 19.1125 21.0012 19.4615C20.5503 19.8106 19.9962 19.9999 19.426 20H4.574C4.00359 20.0004 3.44921 19.8113 2.99793 19.4625C2.54665 19.1136 2.22402 18.6247 2.08073 18.0726C1.93744 17.5205 1.98159 16.9364 2.20626 16.4121C2.43093 15.8878 2.82339 15.453 3.322 15.176L8.514 12.286C8.62877 12.2222 8.75499 12.1816 8.88546 12.1665C9.01592 12.1515 9.14807 12.1623 9.27435 12.1983C9.40064 12.2344 9.5186 12.2949 9.62148 12.3765C9.72437 12.4581 9.81017 12.5592 9.874 12.674C9.93782 12.7888 9.97841 12.915 9.99345 13.0454C10.0085 13.1759 9.99769 13.3081 9.96166 13.4343C9.92563 13.5606 9.86508 13.6786 9.78347 13.7815C9.70185 13.8844 9.60077 13.9702 9.486 14.034L4.296 16.924C4.18462 16.9857 4.09694 17.0828 4.04676 17.1998C3.99658 17.3169 3.98676 17.4473 4.01883 17.5705C4.0509 17.6938 4.12305 17.8029 4.22392 17.8806C4.32479 17.9584 4.44864 18.0004 4.576 18H19.426C19.5533 18.0004 19.6772 17.9584 19.7781 17.8806C19.8789 17.8029 19.9511 17.6938 19.9832 17.5705C20.0152 17.4473 20.0054 17.3169 19.9552 17.1998C19.9051 17.0828 19.8174 16.9857 19.706 16.924L12.32 12.824C11.9199 12.6001 11.5867 12.2736 11.3547 11.8781C11.1227 11.4826 11.0002 11.0325 11 10.574C11 9.81799 11.35 9.21599 11.69 8.78199C11.95 8.44799 12.278 8.12799 12.532 7.87999L12.708 7.70599C12.8475 7.56602 12.9424 7.38786 12.9808 7.19398C13.0191 7.0001 12.9992 6.79922 12.9234 6.61668C12.8477 6.43415 12.7195 6.27815 12.5552 6.16839C12.3908 6.05863 12.1956 6.00003 11.998 5.99999Z" fill="black"/>
</svg>
