<svg width="24" height="24" viewBox="0 0 24 24" fill="none" xmlns="http://www.w3.org/2000/svg">
<path d="M15 8.25C15 10.0402 14.2888 11.7571 13.023 13.023C11.7571 14.2888 10.0402 15 8.25 15C6.45979 15 4.7429 14.2888 3.47703 13.023C2.21116 11.7571 1.5 10.0402 1.5 8.25C1.5 6.45979 2.21116 4.7429 3.47703 3.47703C4.7429 2.21116 6.45979 1.5 8.25 1.5C10.0402 1.5 11.7571 2.21116 13.023 3.47703C14.2888 4.7429 15 6.45979 15 8.25ZM9 5.25C9 5.05109 8.92098 4.86032 8.78033 4.71967C8.63968 4.57902 8.44891 4.5 8.25 4.5C8.05109 4.5 7.86032 4.57902 7.71967 4.71967C7.57902 4.86032 7.5 5.05109 7.5 5.25V7.5H5.25C5.05109 7.5 4.86032 7.57902 4.71967 7.71967C4.57902 7.86032 4.5 8.05109 4.5 8.25C4.5 8.44891 4.57902 8.63968 4.71967 8.78033C4.86032 8.92098 5.05109 9 5.25 9H7.5V11.25C7.5 11.4489 7.57902 11.6397 7.71967 11.7803C7.86032 11.921 8.05109 12 8.25 12C8.44891 12 8.63968 11.921 8.78033 11.7803C8.92098 11.6397 9 11.4489 9 11.25V9H11.25C11.4489 9 11.6397 8.92098 11.7803 8.78033C11.921 8.63968 12 8.44891 12 8.25C12 8.05109 11.921 7.86032 11.7803 7.71967C11.6397 7.57902 11.4489 7.5 11.25 7.5H9V5.25ZM18.75 6H16.1895C16.0424 5.48196 15.845 4.97956 15.6 4.5H18.75C19.7446 4.5 20.6984 4.89509 21.4017 5.59835C22.1049 6.30161 22.5 7.25544 22.5 8.25V14.679C22.4995 15.2755 22.2621 15.8474 21.84 16.269L16.269 21.8415C15.8472 22.263 15.2753 22.4999 14.679 22.5H8.25C7.25544 22.5 6.30161 22.1049 5.59835 21.4017C4.89509 20.6984 4.5 19.7446 4.5 18.75V15.6C4.976 15.844 5.476 16.0405 6 16.1895V18.75C6 19.3467 6.23705 19.919 6.65901 20.341C7.08097 20.7629 7.65326 21 8.25 21H13.5V18C13.5 16.8065 13.9741 15.6619 14.818 14.818C15.6619 13.9741 16.8065 13.5 18 13.5H21V8.25C21 7.65326 20.7629 7.08097 20.341 6.65901C19.919 6.23705 19.3467 6 18.75 6ZM15 20.928C15.0779 20.8914 15.149 20.8417 15.21 20.781L20.781 15.2085C20.8415 15.1479 20.8913 15.0774 20.928 15H18C17.2044 15 16.4413 15.3161 15.8787 15.8787C15.3161 16.4413 15 17.2044 15 18V20.928Z" fill="black"/>
</svg>
